# xmcd CD database file
#
# Track frame offsets:
#	150
#	19533
#	35108
#	53914
#	73452
#	99200
#	120338
#	136623
#	153784
#	172969
#	193222
#
# Disc length: 2804 seconds
#
# Revision: 5
# Processed by: cddbd v1.5.2PL0 Copyright (c) Steve Scherf et al.
# Submitted via: CDex 1.70beta3
#
DISCID=8a0af20b
DTITLE=Various Artist - 驪ｼ縺ｮ骭ｬ驥題｡灘ｸｫ FULLMETAL ALCHEMIST FINAL BEST
DYEAR=2010
DGENRE=Anime
TTITLE0=YUI - again
TTITLE1=繧ｷ繝・/ 蝌・TTITLE2=NICO Touches the Walls - 繝帙Ο繧ｰ繝ｩ繝
TTITLE2=
TTITLE3=遖丞次鄒守ｩ・/ LET IT OUT
TTITLE4=繧ｹ繧ｭ繝槭せ繧､繝・メ - 繧ｴ繝ｼ繝ｫ繝・Φ繧ｿ繧､繝繝ｩ繝舌・
TTITLE5=Lil'B - 縺､縺ｪ縺・□謇・TTITLE6=CHEMISTRY - Period
TTITLE6=
TTITLE7=SCANDAL - 迸ｬ髢薙そ繝ｳ繝√Γ繝ｳ繧ｿ繝ｫ
TTITLE8=繧ｷ繝・/ 繝ｬ繧､繝ｳ
TTITLE9=荳ｭ蟾晉ｿ泌ｭ・/ RAY OF LIGHT
TTITLE10=繧ｷ繝・/ 繝峨Λ繝・(Bonus Track)
EXTD=YEAR: 2010
EXTT0=
EXTT1=
EXTT2=
EXTT3=
EXTT4=
EXTT5=
EXTT6=
EXTT7=
EXTT8=
EXTT9=
EXTT10=
PLAYORDER=
